<?xml version="1.0" encoding="utf-8" standalone="yes"?>
<?xml-stylesheet href="SVGStyle.css" type="text/css"?>
<svg xmlns="http://www.w3.org/2000/svg" version="1.2" baseProfile="tiny" xml:space="preserve" style="shape-rendering:geometricPrecision; fill-rule:evenodd;" width="13.96mm" height="13.96mm" viewBox="-6.97 -6.96 13.96 13.96">
  <circle class="pivotPoint layout" fill="none" cx="0.00" cy="0.00" r="0.4" />
  <rect class="symbolBox layout" fill="none" x="-6.97" y="7" height="13.96" width="13.96" />
  <rect class="svgBox layout" fill="none" x="-6.97" y="-6.96" height="13.96" width="13.96" />

  <path d="M -4,3 L 4,3 L 0,-4 L -4,3" class="sl f0 sCHMGD" style="stroke-width:0.8; fill:none; stroke:#FF00FF;" /> <!-- 세모 -->
  <path d="M -0.75,0.25 L -1.0,0.0 M -1.0,0.0 L -1.75,0.0 M -1.75,0.0 L -2.0,0.25 M -2.0,0.25 L -2.0,1.75 M -2.0,1.75 L -1.75,2.0 M -1.75,2.0 L -1.0,2.0 M -1.0,2.0 L -0.75,1.75 M -0.75,1.75 L -0.75,1.0 M -0.75,1.0 L -1.25,1.0" class="sl f0 sCHMGD" style="stroke-width:0.5; fill:none; stroke:#FF00FF;"/>
  <path d="M -0.5,0.0 L -0.5,2.0 M -0.5,0.0 L 0.5,0.0 M 0.5,0.0 L 0.75,0.25 M 0.75,0.25 L 0.75,0.75 M 0.75,0.75 L 0.5,1.0 M 0.5,1.0 L -0.5,1.0 M 0.5,1.0 L 0.75,1.25 M 0.75,1.25 L 0.75,2.0" class="sl f0 sCHMGD" style="stroke-width:0.5; fill:none; stroke:#FF00FF;"/>
  <path d="M 1.0,0.0 L 1.0,2.0 M 1.0,0.0 L 2.0,0.0 M 2.0,0.0 L 2.25,0.25 M 2.25,0.25 L 2.25,1.75 M 2.25,1.75 L 2.0,2.0 M 2.0,2.0 L 1.0,2.0" class="sl f0 sCHMGD" style="stroke-width:0.5; fill:none; stroke:#FF00FF;"/>

</svg>